<svg xmlns="http://www.w3.org/2000/svg" xmlns:xlink="http://www.w3.org/1999/xlink" version="1.1" x="0px" y="0px" viewBox="0 0 448 609.99625" style="enable-background:new 0 0 448 487.997;" xml:space="preserve"><g><path d="M26.961,24.965c2.047,0.831,3.032,3.164,2.201,5.211c-6.675,16.442-13.666,42.379-9.058,72.568   c0.368,2.408,0.815,4.807,1.319,7.196c11.579,5.535,23.345,8.26,35.005,8.077c9.794-0.149,15.661-2.259,21.872-4.493   c6.621-2.381,13.466-4.843,24.719-4.843s18.099,2.462,24.719,4.843c6.211,2.233,12.077,4.343,21.872,4.493   c11.664,0.175,23.427-2.543,35.005-8.077c0.504-2.389,0.951-4.788,1.319-7.196c4.607-30.189-2.383-56.126-9.058-72.568   c-0.831-2.047,0.154-4.38,2.201-5.211c2.048-0.83,4.38,0.155,5.211,2.201c1.403,3.455,2.66,6.943,3.8,10.453l7.683-1.284   c5.949-0.995,10.267-6.112,10.267-12.167c0-3.588-1.551-6.991-4.256-9.336c-2.688-2.331-6.246-3.379-9.763-2.875l-9.848,1.411   c-3.307,0.476-6.693,0.122-9.793-1.017C150.086,4.156,126.751,0,103.019,0C79.274,0,55.931,4.159,33.637,12.36   c-3.082,1.134-6.458,1.483-9.765,1.01l-9.852-1.412c-3.52-0.505-7.075,0.543-9.764,2.875C1.551,17.177,0,20.58,0,24.168   c0,6.055,4.318,11.172,10.267,12.167l7.683,1.284c1.14-3.51,2.398-6.999,3.8-10.453C22.581,25.12,24.911,24.133,26.961,24.965z    M154.201,47.34c5.14,0,9.306,4.179,9.306,9.335c0,5.155-4.166,9.335-9.306,9.335s-9.306-4.179-9.306-9.335   C144.896,51.52,149.062,47.34,154.201,47.34z M94.674,66.01h8.339h8.339c6.922,0,10.872,7.926,6.72,13.481   c-2.78,3.718-5.559,7.435-8.339,11.153c-3.36,4.494-10.079,4.494-13.439,0c-2.78-3.718-5.56-7.435-8.339-11.153   C83.802,73.936,87.752,66.01,94.674,66.01z M51.836,47.34c5.14,0,9.306,4.179,9.306,9.335c0,5.155-4.167,9.335-9.306,9.335   s-9.306-4.179-9.306-9.335C42.53,51.52,46.696,47.34,51.836,47.34z"/><path d="M125.031,121.053c-6.25-2.248-12.154-4.371-22.012-4.371s-15.762,2.123-22.012,4.371   c-6.553,2.357-13.33,4.794-24.457,4.964c-10.902,0.181-21.857-1.932-32.656-6.255c1.457,4.977,3.201,9.887,5.243,14.693   c0.21,0.495,0.319,1.027,0.319,1.565c0,40.721,7.805,78.764,21.977,107.121c13.826,27.665,32.146,42.9,51.585,42.9   s37.759-15.235,51.585-42.9c14.172-28.357,21.977-66.4,21.977-107.121c0-0.538,0.108-1.07,0.319-1.565   c2.043-4.807,3.787-9.718,5.245-14.697c-10.401,4.161-20.945,6.268-31.455,6.268c-0.401,0-0.801-0.003-1.202-0.009   C138.361,125.847,131.584,123.41,125.031,121.053z M152.885,138.48c1.219,1.842,0.713,4.324-1.13,5.543   c-19.293,12.76-38.816,14.666-48.736,14.666c-23.113,0-40.456-9.188-48.736-14.666c-1.843-1.219-2.349-3.701-1.13-5.543   c1.219-1.843,3.7-2.349,5.543-1.13c7.531,4.981,23.304,13.338,44.323,13.338c9.021,0,26.776-1.733,44.323-13.338   C149.185,136.131,151.666,136.637,152.885,138.48z"/><path d="M305.686,237.163c-43.081-13.77-76.808-47.423-90.219-90.022l-20.074-63.763c-0.013,6.909-0.516,13.786-1.552,20.574   c-1.713,11.224-4.829,22.281-9.261,32.879c-0.218,88.223-35.965,157.21-81.562,157.21c-33.965,0-62.461-38.286-74.881-94.283   c0.108,16.069,0.532,32.125,1.313,48.082c1.822,37.188,5.517,74.722,10.983,111.56c1.954,13.175-2.003,26.464-10.856,36.461   l-7.716,8.711c-2.095,2.366-3.25,5.413-3.25,8.579c0,7.119,5.768,12.91,12.858,12.91h31.311c5.724,0,10.819-3.888,12.391-9.453   c2.265-8.02,4.041-16.256,5.279-24.481c2.956-19.637,2.956-39.652,0-59.489c-0.313-2.096,1.063-4.07,3.136-4.505   c2.073-0.429,4.126,0.823,4.681,2.867c2.657,9.788,6.572,18.958,11.635,27.256c7.319,11.995,17.235,22.506,29.501,31.282   c2.926-3.175,5.013-7.085,5.991-11.418c2.23-9.875,3.558-20.004,3.948-30.104c0.498-12.891-0.52-25.854-3.024-38.529   c-0.428-2.168,0.982-4.271,3.149-4.699c2.171-0.428,4.271,0.981,4.7,3.148c2.625,13.286,3.691,26.875,3.169,40.389   c-0.409,10.589-1.801,21.206-4.138,31.558c-2.185,9.675-8.527,17.775-17.399,22.226l-8.386,4.206   c-3.542,1.776-5.742,5.35-5.742,9.325c0,5.747,4.656,10.423,10.379,10.423h28.411c9.502,0,18.301-5.504,22.414-14.021   c9.691-20.064,17.772-41.074,24.017-62.445c6.598-22.578,11.248-45.902,13.822-69.324c0.242-2.196,2.221-3.768,4.413-3.54   c2.196,0.242,3.78,2.218,3.539,4.413c-2.625,23.885-7.367,47.67-14.095,70.695c-6.125,20.962-13.999,41.572-23.383,61.322   c42.454,11.726,85.491,10.069,101.185,8.914c2.943-5.925,9.032-10.015,16.071-10.015h6.572c-6.149-3.138-11.86-7.145-16.94-11.941   c-12.692-11.984-20.342-27.77-21.54-44.448c-1.028-14.324,2.666-28.543,10.682-41.117c8.037-12.606,19.67-22.358,33.642-28.201   c2.035-0.852,4.38,0.108,5.233,2.147c0.852,2.038-0.109,4.381-2.147,5.233c-25.057,10.479-41.271,35.713-39.43,61.365   c2.195,30.58,29.131,55.603,61.321,56.966c2.174,0.092,3.876,1.905,3.83,4.081s-1.823,3.915-3.999,3.915h-37.224   c-5.491,0-9.959,4.487-9.959,10.002s4.468,10.002,9.959,10.002h48.958c12.619,0,23.662-8.023,27.478-19.965   c1.461-4.572,2.596-9.289,3.371-14.021c3.393-20.71-0.563-38.274-4.478-49.362c-0.735-2.083,0.357-4.368,2.44-5.104   c2.083-0.739,4.369,0.356,5.104,2.439c4.227,11.971,8.495,30.938,4.829,53.319c-0.838,5.118-2.065,10.22-3.646,15.163   c-4.88,15.27-18.985,25.529-35.098,25.529h-8.734c-15.926,5.35-32.275,10.026-48.608,13.895   c-24.7,5.849-49.934,10.003-75.293,12.403c12.51,3.119,25.151,5.717,37.786,7.76c32.165,5.2,65.133,6.963,97.992,5.233   c45.863-2.413,84.92-34.855,94.981-78.895c1.552-6.794,2.382-13.676,2.467-20.454C448.766,326.219,390.247,264.19,305.686,237.163z   "/></g><text x="0" y="502.997" fill="#000000" font-size="5px" font-weight="bold" font-family="'Helvetica Neue', Helvetica, Arial-Unicode, Arial, Sans-serif">Created by Amethyst Studio</text><text x="0" y="507.997" fill="#000000" font-size="5px" font-weight="bold" font-family="'Helvetica Neue', Helvetica, Arial-Unicode, Arial, Sans-serif">from the Noun Project</text></svg>